<svg xmlns="http://www.w3.org/2000/svg" xml:space="preserve" width="176.46" height="30"><path d="m80.18 7.16.84-7.11-4.6 3.87-.82 7.11h7.65l3.87-3.87z" style="fill:#ff7522;stroke-width:.14622;fill-opacity:1"/><g style="fill:#fff"><path d="m100.35 15.18-.53 4.5h10.77l.53-4.5zM64.8 8.27H52.7a5.17 5.17 0 0 0-4.96 4.46l-1.09 9.42a3.85 3.85 0 0 0 3.9 4.43h12.1a5.14 5.14 0 0 0 4.96-4.43l1.13-9.42a3.92 3.92 0 0 0-3.94-4.46Zm-1.12 6.21-.7 5.89c-.1.9-.36 1.72-2.21 1.72h-7.31c-1.82 0-1.92-.83-1.82-1.72l.7-5.89c.13-.92.4-1.72 2.21-1.72h7.34c1.76 0 1.92.8 1.79 1.72zm29.93 7.66c-1.62 0-1.92-1.15-1.76-2.61l.51-4.3h-4.82l-.81 6.98a3.85 3.85 0 0 0 3.9 4.43h5.8l.53-4.5zM76.28 8.27a5.17 5.17 0 0 0-4.8 3.7 4.59 4.59 0 0 0-.16.76L69.77 26.6h4.8l1.35-12.1c.13-.93.4-1.72 2.21-1.72h7.4l.53-4.5h-9.78zm77.62 0h-11.26l.97-8.27h-4.82l-3.1 26.58h4.8l1.64-13.82h8.9a1.73 1.73 0 0 1 1.75 1.99l-1.39 11.83h4.8l1.61-13.85a3.87 3.87 0 0 0-3.9-4.46zM41.19 8.27H29.24a5.17 5.17 0 0 0-4.96 4.46l-2.66 22.12h4.8l.97-8.26h11.65a5.07 5.07 0 0 0 2.43-.68A5.59 5.59 0 0 0 44 22.12l1.12-9.42a3.89 3.89 0 0 0-3.93-4.43zM27.92 22.09l.96-8.2a1.32 1.32 0 0 1 1.3-1.16h8.62a1.31 1.31 0 0 1 1.03.5c.1.1.16.23.2.37.08.18.1.39.08.6l-.73 6.2-.05.52A1.32 1.32 0 0 1 38 22.1M201.04 8.27H189.1a5.17 5.17 0 0 0-4.96 4.46l-1.12 9.36-.54 4.5-1 8.26h4.8l.98-8.27h11.64a5.07 5.07 0 0 0 2.44-.68 5.59 5.59 0 0 0 2.51-3.78l1.12-9.38a3.89 3.89 0 0 0-3.92-4.48zm-1.07 5.93-.79 6.72a1.32 1.32 0 0 1-1.3 1.17h-10.11l.96-8.2a1.32 1.32 0 0 1 1.31-1.16h8.62a1.31 1.31 0 0 1 1.02.5c.1.1.17.23.21.37.07.18.1.39.08.6zm-22.43-5.93h-12.1a5.17 5.17 0 0 0-4.97 4.46l-1.09 9.42a3.85 3.85 0 0 0 3.9 4.43h12.1a5.14 5.14 0 0 0 4.97-4.43l1.12-9.42a3.92 3.92 0 0 0-3.93-4.46zm-1.13 6.21-.7 5.89c-.09.9-.35 1.72-2.2 1.72h-7.32c-.39 0-1.22.01-1.63-.53-.23-.32-.23-.75-.18-1.2l.7-5.88c.12-.92.39-1.72 2.2-1.72h7.35c1.75 0 1.92.8 1.78 1.72zM.57 22.05 0 26.58h15.49a5.77 5.77 0 0 0 3.28-1.28c2.61-2.24 2.82-7.2.55-9.07a4.16 4.16 0 0 0-2.48-.86H7.7a.97.97 0 0 1-.96-1.07l.08-.68a.96.96 0 0 1 .96-.86h14.15l.56-4.5H7.12c-.7.06-2.1.28-3.31 1.3-2.42 2-3.05 6.3-1.05 8.45a4.38 4.38 0 0 0 2.84 1.36h9.3a.96.96 0 0 1 .95 1.08v.05l-.09.7a.96.96 0 0 1-.95.85m105.05-8.43a.96.96 0 0 1 .96-.85h14.14l.57-4.5h-15.36c-.7.06-2.1.27-3.31 1.28-2.42 2.02-3.05 6.31-1.05 8.46a4.2 4.2 0 0 0 2.84 1.37h9.3a.96.96 0 0 1 .95 1.07l-.09.75a.96.96 0 0 1-.95.85h-14.24l-.57 4.53h15.49a5.77 5.77 0 0 0 3.28-1.28c2.61-2.24 2.82-7.2.55-9.07a4.16 4.16 0 0 0-2.48-.86h-9.15a.97.97 0 0 1-.96-1.07z" class="st0" style="fill:#fff;stroke-width:.169865" transform="scale(.8608)"/></g></svg>